<svg width="778" height="503" viewBox="0 0 778 503" fill="none"
  xmlns="http://www.w3.org/2000/svg">
  <path d="M659.724 167.452V301.845H564.274L658.169 167.452H659.724ZM659.724 366.552V456.145H729.756V366.552H778V301.845H729.756V69.0083H663.874L506.173 294.655V366.552H659.724Z" fill="#5C8FFF"/>
  <path d="M153.551 169.588V303.981H58.1005L151.996 169.588H153.551ZM153.551 368.688V458.281H223.583V368.688H271.827V303.981H223.583V71.1445H157.701L0 296.792V368.688H153.551Z" fill="#5C8FFF"/>
  <g filter="url(#filter0_b_616_15440)">
    <path d="M418.093 18.7082C524.897 51.1656 623.273 123.623 623.273 252.215C623.273 380.807 515.882 485.043 383.41 485.043C250.937 485.043 145.413 404.031 111.088 282.299C97.3922 231.118 123.149 166.523 196.059 122.383C268.969 78.2432 311.29 -13.7493 418.093 18.7082Z" fill="url(#paint0_linear_616_15440)" fill-opacity="0.4"/>
  </g>
  <g filter="url(#filter1_b_616_15440)">
    <path d="M412.813 39.4923C508.351 69.1085 596.35 135.223 596.35 252.559C596.35 369.895 500.287 465.006 381.789 465.006C263.29 465.006 168.897 391.085 138.193 280.009C125.941 233.308 148.981 174.368 214.2 134.092C279.42 93.8158 317.276 9.87606 412.813 39.4923Z" fill="url(#paint1_linear_616_15440)"/>
  </g>
  <path d="M390.854 0.601883C378.908 0.581824 367.04 2.51572 355.718 6.32699C350.298 8.15587 345.012 10.358 339.896 12.9176C334.762 15.4932 329.777 18.3565 324.966 21.4938C320.299 24.5219 315.644 27.8539 310.73 31.6783C306.345 35.0928 301.852 38.8275 296.993 43.0966C287.954 51.0379 278.943 59.7152 270.229 68.1067C261.104 76.8941 251.667 85.9826 241.993 94.439C236.779 98.9977 231.928 103.001 227.165 106.676C221.809 110.809 216.708 114.422 211.564 117.721C193.933 129.032 178.489 141.995 165.661 156.252C153.922 169.156 144.168 183.735 136.719 199.51C130.073 213.59 125.774 228.661 123.992 244.128C123.188 251.356 123.016 258.64 123.476 265.898C123.927 272.933 125.017 279.913 126.734 286.75C135.209 318.595 148.121 348.179 165.112 374.68C181.551 400.458 202.129 423.349 226.019 442.43C249.784 461.349 276.596 476.084 305.307 486.006C334.845 496.238 366.318 501.423 398.849 501.423C407.031 501.422 415.208 500.997 423.346 500.15C447.057 497.675 470.246 491.573 492.104 482.058C506.382 475.836 520.013 468.226 532.801 459.337C545.557 450.463 557.431 440.385 568.261 429.243C590.211 406.639 607.64 380.05 619.611 350.906C622.646 343.526 625.357 335.908 627.669 328.262C630.007 320.53 631.994 312.583 633.573 304.643C635.174 296.599 636.396 288.365 637.204 280.172C638.025 271.857 638.442 263.379 638.442 254.971C638.442 246.582 638.062 238.227 637.312 230.138C636.577 222.205 635.466 214.312 634.011 206.676C632.584 199.191 630.787 191.75 628.67 184.561C626.596 177.516 624.156 170.519 621.423 163.765C618.744 157.149 615.705 150.587 612.398 144.264C609.158 138.07 605.568 131.933 601.73 126.027C597.971 120.245 593.872 114.526 589.546 109.031C585.313 103.653 580.748 98.3428 575.98 93.2503C571.314 88.2673 566.328 83.3584 561.161 78.6601C556.105 74.0641 550.743 69.547 545.221 65.2381C534.183 56.6552 522.583 48.8199 510.5 41.7845C487.288 28.2223 461.346 16.7829 433.393 7.78355C426.141 5.42513 418.726 3.60155 411.207 2.32748C404.48 1.19804 397.672 0.62132 390.851 0.603086M390.851 0.00120368C403.93 0.00120368 418.074 2.21854 433.578 7.21056C540.531 41.6491 639.043 118.53 639.043 254.977C639.043 391.424 531.505 502.027 398.849 502.027C266.194 502.027 160.524 416.067 126.151 286.899C112.437 232.592 138.23 164.053 211.238 117.217C273.666 77.1698 313.702 0 390.854 0L390.851 0.00120368Z" fill="url(#paint2_linear_616_15440)"/>
  <mask id="mask0_616_15440" style="mask-type:alpha" maskUnits="userSpaceOnUse" x="134" y="34" width="462" height="433">
    <path d="M411.871 40.715C507.408 70.3312 595.407 136.446 595.407 253.781C595.407 371.117 499.345 466.229 380.846 466.229C262.348 466.229 167.954 392.308 137.25 281.232C124.999 234.531 148.039 175.591 213.258 135.315C278.477 95.0385 316.334 11.0987 411.871 40.715Z" fill="#D9D9D9"/>
  </mask>
  <g mask="url(#mask0_616_15440)">
    <path d="M522.002 393.682L521.99 417.801C521.99 419.45 521.081 420.95 519.644 421.753C505.22 429.798 493.705 442.954 487.627 458.312C486.93 460.066 485.179 460.842 483.315 461.136C447.033 466.866 401.407 468.249 375.774 458.786C373.553 457.967 367.439 452.586 367.439 452.586C367.439 452.586 372.464 422.967 370.244 408.26C369.875 405.812 371.556 403.525 373.999 403.145C419.779 396.004 470.074 399.369 516.542 389.279C519.354 388.668 522.006 390.811 522.002 393.682Z" fill="#E8E8E8"/>
    <path d="M522.002 396.176C522.307 402.341 521.915 411.773 521.853 418.141C521.837 419.673 520.96 421.008 519.652 421.807C505.643 430.377 499.85 435.207 486.601 459.768C486.107 460.681 481.361 461.402 476.728 462.114C470.14 463.129 462.906 463.971 460.964 463.971C492.378 445.331 503.849 418.905 492.73 408.78C515.269 399.815 503.077 404.629 522.002 396.176Z" fill="#D5D5D5"/>
    <path d="M488.453 195.753C494.943 184.92 513.761 177.807 525.757 181.767C537.749 185.726 544.423 193.865 549.185 205.565C553.948 217.264 557.112 237.979 557.371 249.032C557.899 271.797 553.203 317.415 548.39 339.67C546.068 350.417 538.113 376.69 536.214 381.939C534.526 386.604 534.632 386.952 533.801 387.779C521.183 400.398 481.118 414.659 456.397 417.593C417.092 422.254 367.361 410.562 339.887 403.027C331.564 400.743 358.235 409.309 359.066 409.893C360.397 410.825 362.218 409.693 362.019 408.079C361.889 407.057 361.823 405.768 361.866 404.151C362.05 397.406 367.831 391.954 374.124 389.533C380.422 387.113 388.901 390.332 393.977 385.891C441.652 344.154 450.671 355.779 463.893 326.893C477.115 298.007 480.138 265.608 481.846 233.883C482.598 219.943 483.824 203.485 488.453 195.753Z" fill="#F2F2F2"/>
    <path d="M491.418 404.017C446.179 423.538 389.215 411.549 387.593 411.467C415.298 420.005 446.845 418.787 455.916 417.655C466.874 416.284 478.654 413.452 489.432 409.923C495.879 407.812 505.353 404.264 511.071 401.639C516.867 398.98 521.136 396.971 526.458 393.504C528.687 392.051 532.231 389.646 534.209 387.312C531.738 386.595 523.968 383.466 523.098 383.09C523.094 383.086 514.349 394.119 491.418 404.017Z" fill="#D5D5D5"/>
    <mask id="mask1_616_15440" style="mask-type:luminance" maskUnits="userSpaceOnUse" x="278" y="80" width="331" height="299">
      <path d="M342.75 341.497L559.616 378.283C559.772 378.236 608.548 203.91 608.501 203.754L453.308 80.9604C453.261 80.8037 435.175 88.551 435.022 88.598L278.811 137.592C278.654 137.639 278.568 137.808 278.615 137.964L342.374 341.309C342.425 341.462 342.594 341.548 342.75 341.497Z" fill="white"/>
    </mask>
    <g mask="url(#mask1_616_15440)">
      <path d="M298.048 191.546C299.047 209.422 307.416 230.403 334.248 241.633C337.859 243.145 342.41 246.235 343.373 249.145C347.094 260.378 346.526 270.006 352.346 280.706C359.172 293.259 359.004 300.129 364.585 307.062C365.869 308.66 377.391 301.124 410.481 285.821C421.659 280.651 428.634 295.797 434.019 284.721C439.404 273.648 450.311 269.261 451.244 256.982C451.972 247.379 450.727 233.506 455.129 225.081C458.791 218.07 465.221 211.376 473.27 210.389C473.556 210.354 479.003 207.51 478.753 207.373C464.755 199.688 509.473 205.395 509.473 205.395C509.473 205.395 479.896 188.706 451.827 168.5C429.852 152.68 424.365 144.94 413.544 137.785C405.198 132.262 388.686 125.447 371.897 128.067C371.587 128.114 371.552 128.553 371.85 128.647C374.329 129.45 376.929 128.937 377.505 126.332C378.155 123.379 374.607 119.403 371.579 119.439C368.932 119.466 365.975 121.009 364.945 124.084C364.945 124.084 365.991 122.169 366.065 122.032C367.048 120.296 366.386 118.044 365.932 117.128C365.027 115.303 363.002 112.353 360.038 112.326C357.382 112.302 355.447 114.742 355.471 116.548C355.51 119.905 359.846 125.572 356.419 126.645C325.314 136.14 295.969 154.251 298.048 191.546Z" fill="#D08A5A"/>
    </g>
    <mask id="mask2_616_15440" style="mask-type:luminance" maskUnits="userSpaceOnUse" x="291" y="132" width="140" height="122">
      <path d="M321.605 253.089L430.646 211.341C430.799 211.282 430.877 211.121 430.826 210.98L400.905 132.822C400.85 132.681 400.681 132.614 400.529 132.673L291.491 174.418C291.338 174.476 291.26 174.637 291.311 174.778L321.229 252.936C321.287 253.081 321.452 253.148 321.605 253.089Z" fill="white"/>
    </mask>
    <g mask="url(#mask2_616_15440)">
      <path d="M334.369 162.699C336.55 162.409 343.549 161.716 348.225 156.839C351.687 153.224 356.309 149.903 361.071 147.803C367.122 145.136 376.22 144.874 381.558 146.08C387.609 147.451 397.944 152.092 405.045 157.262C411.82 162.197 417.049 171.417 417.805 180.019C418.725 190.5 414.613 199.802 408.578 207.859C400.921 218.081 392.7 223.913 383.548 228.656C363.609 238.993 350.144 238.691 339.088 237.328C331.6 236.408 321.558 232.769 313.964 225.55C311.763 223.459 309.911 220.063 308.211 217.584C303.891 211.286 302.72 198.431 303.641 190.081C304.823 179.337 307.929 166.2 334.369 162.699Z" fill="#F2D2B6"/>
    </g>
    <path d="M307.768 192.975C308.99 190.68 310.643 188.808 312.409 186.904C314.175 184.997 316.721 183.493 318.37 182.725C321.491 181.264 326.097 181.746 328.427 182.376C330.409 182.913 332.822 184.726 334.564 186.959C336.421 189.34 336.871 193.551 337.13 196.563C337.384 199.579 336.029 204.976 334.134 207.326C332.755 209.034 329.837 211.462 325.122 212.512C319.443 213.781 317.653 214.102 315.734 216.139C314.559 217.384 313.333 219.158 312.707 220.149C311.861 221.485 311.453 222.076 311.297 222.386C308.869 219.499 306.938 215.723 305.708 212.739C305.262 211.662 303.1 207.111 303.143 201.576C303.143 201.702 305.798 196.676 307.768 192.975Z" fill="#D9A171"/>
    <path opacity="0.1686" d="M303.143 201.62C303.143 201.62 303.198 203.649 303.398 205.114C303.515 205.964 304.302 209.352 305.332 211.862C306.836 215.528 308.528 219.116 311.285 222.394C312.539 220.42 313.087 219.523 313.087 219.523C313.087 219.523 310.306 216.688 308.144 211.232C307.083 208.552 305.61 205.415 304.576 198.968C303.817 200.398 303.143 201.62 303.143 201.62Z" fill="#523618"/>
    <path d="M331.553 191.095C328.733 186.583 318.053 186.876 318.053 186.876C318.053 186.876 312.115 195.623 315.754 201.811C319.392 207.999 325.384 209.872 329.626 206.73C334.165 203.374 335.359 197.181 331.553 191.095Z" fill="white"/>
    <path opacity="0.1412" d="M328.599 196.59C329.335 198.235 330.863 201.321 330.596 205.951C332.132 204.431 333.146 202.696 333.6 200.585C334.051 198.494 333.812 196.085 332.986 193.97C331.623 194.839 330.706 195.458 328.599 196.59Z" fill="#111111"/>
    <path d="M324.201 206.68C325.815 206.68 327.123 205.372 327.123 203.758C327.123 202.144 325.815 200.836 324.201 200.836C322.587 200.836 321.279 202.144 321.279 203.758C321.279 205.372 322.587 206.68 324.201 206.68Z" fill="#111111" stroke="#111111" stroke-miterlimit="10"/>
    <path d="M323.508 205.955C324.237 205.955 324.828 205.364 324.828 204.635C324.828 203.906 324.237 203.315 323.508 203.315C322.779 203.315 322.188 203.906 322.188 204.635C322.188 205.364 322.779 205.955 323.508 205.955Z" fill="white"/>
    <path d="M319.314 185.49C310.271 188.933 315.304 201.106 315.288 201.056C315.288 201.056 322.459 200.918 333.104 193.896C333.104 193.896 332.955 193.402 332.505 192.521C330.934 189.438 326.536 182.741 319.314 185.49Z" fill="#D39266"/>
    <path opacity="0.1294" d="M333.068 193.779C333.06 193.751 333.049 193.728 333.037 193.692C333.005 193.606 332.958 193.493 332.9 193.356C332.755 193.023 332.52 192.553 332.304 192.134C332.12 191.789 331.901 191.409 331.658 191.009C331.212 190.297 330.687 189.564 330.146 188.891C329.727 188.385 329.269 187.892 328.764 187.43C328.529 187.218 328.263 186.999 327.965 186.764C327.703 186.56 327.409 186.352 327.107 186.161C326.398 185.718 325.627 185.358 324.793 185.123C324.385 185.017 323.962 184.935 323.571 184.884C322.321 184.739 320.955 184.884 319.462 185.436C319.349 185.483 319.231 185.526 319.118 185.577C319.082 185.593 319.047 185.608 319.008 185.624C318.616 185.8 318.217 186 317.798 186.235C317.79 186.239 317.786 186.243 317.778 186.251C319.529 186.274 322.78 187.743 326.559 192.96C327.452 194.194 328.118 195.416 328.607 196.591C330.025 195.827 331.529 194.938 333.111 193.892C333.103 193.896 333.092 193.853 333.068 193.779Z" fill="#111111"/>
    <path d="M371.626 160.779C369.887 162.381 367.568 165.385 367.482 169.298C367.396 173.211 368.622 178.013 370.455 181.471C372.029 184.436 374.551 187.108 377.63 188.447C381.652 190.198 386.908 189.438 389.943 188.228C392.779 187.096 397.376 184.1 402.025 183.062C403.611 182.705 406.948 182.74 408.35 183.148C411.123 183.959 415.126 187.621 416.963 190.981C419.077 182.29 417.534 176.818 415.933 171.711C414.436 166.94 412.212 163.404 412.212 163.404C412.212 163.404 411.401 162.992 410.555 162.616C408.452 161.68 403.694 158.993 401.45 158.484C397.47 157.583 394.725 156.502 390.668 156.056C387.249 155.68 384.679 156.048 381.296 156.651C378.029 157.235 373.29 159.248 371.626 160.779Z" fill="#D9A171"/>
    <path d="M390.496 167.848C387.758 162.878 376.404 162.58 376.404 162.58C376.404 162.58 369.601 171.569 373.114 178.376C376.627 185.184 382.878 187.522 387.562 184.416C392.571 181.091 394.193 174.554 390.496 167.848Z" fill="white"/>
    <path opacity="0.1412" d="M387.049 173.544C387.739 175.342 389.184 178.722 388.639 183.642C390.355 182.11 391.53 180.316 392.133 178.092C392.732 175.887 392.611 173.305 391.855 171.002C390.359 171.848 389.348 172.456 387.049 173.544Z" fill="#111111"/>
    <path d="M381.08 184.127C382.795 184.127 384.186 182.731 384.186 181.009C384.186 179.287 382.795 177.892 381.08 177.892C379.365 177.892 377.974 179.287 377.974 181.009C377.974 182.731 379.365 184.127 381.08 184.127Z" fill="#111111" stroke="#111111" stroke-miterlimit="10"/>
    <path d="M380.375 183.641C381.149 183.641 381.777 183.01 381.777 182.231C381.777 181.453 381.149 180.821 380.375 180.821C379.6 180.821 378.973 181.453 378.973 182.231C378.973 183.01 379.6 183.641 380.375 183.641Z" fill="white"/>
    <path d="M377.821 161.174C368.026 164.331 372.679 177.601 372.664 177.543C372.664 177.543 380.285 177.805 391.987 170.923C391.987 170.923 391.858 170.391 391.427 169.423C389.935 166.051 385.643 158.652 377.821 161.174Z" fill="#D39266"/>
    <path opacity="0.1294" d="M391.948 170.798C391.94 170.771 391.932 170.743 391.92 170.708C391.92 170.704 391.92 170.704 391.92 170.7C391.889 170.606 391.85 170.485 391.795 170.336C391.658 169.972 391.439 169.455 391.231 169C391.055 168.62 390.847 168.205 390.608 167.767C390.174 166.979 389.661 166.172 389.124 165.424C388.709 164.864 388.247 164.308 387.738 163.787C387.499 163.552 387.232 163.298 386.927 163.031C386.661 162.8 386.359 162.561 386.054 162.338C385.325 161.825 384.526 161.394 383.653 161.1C383.226 160.967 382.783 160.854 382.368 160.775C381.052 160.552 379.588 160.626 377.974 161.128C377.849 161.171 377.723 161.21 377.598 161.257C377.559 161.273 377.52 161.284 377.481 161.3C377.054 161.465 376.615 161.657 376.161 161.884C376.153 161.888 376.145 161.892 376.137 161.895C377.994 162.021 381.358 163.772 385.078 169.553C385.96 170.92 386.594 172.263 387.044 173.544C388.591 172.811 390.24 171.95 391.983 170.923C391.983 170.923 391.971 170.876 391.948 170.798Z" fill="#111111"/>
    <path d="M344.693 185.447C338.36 193.147 338.916 204.008 340.059 208.626C341.203 213.24 342.95 216.53 344.81 219.048C345.605 220.13 348.969 225.852 356.896 223.365C361.055 222.06 364.098 219.092 369.534 217.388C376.357 215.249 380.551 209.566 379.004 205.097C370.396 180.261 353.461 180.586 350.92 181.385C347.72 182.388 345.041 185.024 344.693 185.447Z" fill="#D9A171"/>
    <path opacity="0.1608" d="M361.51 216.296C363.297 215.634 364.159 213.514 363.435 211.561C362.711 209.607 360.676 208.561 358.889 209.223C357.102 209.885 356.24 212.005 356.964 213.959C357.688 215.912 359.723 216.959 361.51 216.296Z" fill="#252525"/>
    <path d="M361.241 215.498C363.038 214.832 363.908 212.709 363.184 210.755C362.46 208.802 360.417 207.758 358.62 208.424C356.822 209.09 355.952 211.214 356.676 213.167C357.4 215.121 359.444 216.164 361.241 215.498Z" fill="#252525"/>
    <path d="M343.059 200.741C341.657 196.444 345.659 191.991 352.137 189.884C358.611 187.773 364.717 189.05 366.119 193.346C367.521 197.643 363.299 202.872 356.825 204.983C350.351 207.094 344.461 205.038 343.059 200.741Z" fill="#252525"/>
    <mask id="mask3_616_15440" style="mask-type:luminance" maskUnits="userSpaceOnUse" x="356" y="192" width="7" height="9">
      <path d="M358.853 200.424L362.307 199.296C362.464 199.245 362.546 199.076 362.495 198.924L360.541 192.923C360.49 192.767 360.322 192.684 360.169 192.735L356.715 193.863C356.558 193.914 356.476 194.083 356.527 194.235L358.481 200.236C358.532 200.392 358.7 200.475 358.853 200.424Z" fill="white"/>
    </mask>
    <g mask="url(#mask3_616_15440)">
      <g opacity="0.1216">
        <mask id="mask4_616_15440" style="mask-type:luminance" maskUnits="userSpaceOnUse" x="356" y="192" width="7" height="9">
          <path d="M358.853 200.424L362.307 199.296C362.464 199.245 362.546 199.076 362.495 198.924L360.541 192.923C360.49 192.767 360.322 192.684 360.169 192.735L356.715 193.863C356.558 193.914 356.476 194.083 356.527 194.235L358.481 200.236C358.532 200.392 358.7 200.475 358.853 200.424Z" fill="white"/>
        </mask>
        <g mask="url(#mask4_616_15440)">
          <path d="M357.792 196.589C357.883 193.965 358.838 192.88 359.856 192.927C360.871 192.974 361.317 194.568 360.769 196.636C360.483 197.713 359.982 199.405 359.21 200.251C358.615 200.905 357.718 198.794 357.792 196.589Z" fill="white"/>
        </g>
      </g>
    </g>
    <mask id="mask5_616_15440" style="mask-type:luminance" maskUnits="userSpaceOnUse" x="347" y="195" width="7" height="9">
      <path d="M347.543 197.729L349.96 203.561C350.022 203.714 350.195 203.785 350.348 203.722L353.704 202.331C353.857 202.269 353.927 202.096 353.864 201.944L351.448 196.112C351.385 195.959 351.213 195.888 351.06 195.951L347.704 197.341C347.551 197.404 347.481 197.58 347.543 197.729Z" fill="white"/>
    </mask>
    <g mask="url(#mask5_616_15440)">
      <g opacity="0.1216">
        <mask id="mask6_616_15440" style="mask-type:luminance" maskUnits="userSpaceOnUse" x="347" y="195" width="7" height="9">
          <path d="M349.842 203.909L353.794 202.62C353.951 202.569 354.033 202.401 353.982 202.248L351.93 195.954C351.879 195.797 351.71 195.715 351.558 195.766L347.606 197.055C347.449 197.106 347.367 197.274 347.418 197.427L349.47 203.721C349.521 203.874 349.689 203.956 349.842 203.909Z" fill="white"/>
        </mask>
        <g mask="url(#mask6_616_15440)">
          <path d="M352.016 198.724C350.242 196.789 348.808 196.585 348.068 197.282C347.328 197.979 348.025 199.479 349.787 200.694C350.704 201.328 352.188 202.284 353.32 202.425C354.197 202.538 353.508 200.349 352.016 198.724Z" fill="white"/>
        </g>
      </g>
    </g>
    <mask id="mask7_616_15440" style="mask-type:luminance" maskUnits="userSpaceOnUse" x="356" y="192" width="7" height="9">
      <path d="M358.853 200.424L362.307 199.296C362.464 199.245 362.546 199.076 362.495 198.924L360.541 192.923C360.49 192.767 360.322 192.684 360.169 192.735L356.715 193.863C356.558 193.914 356.476 194.083 356.527 194.235L358.481 200.236C358.532 200.392 358.7 200.475 358.853 200.424Z" fill="white"/>
    </mask>
    <g mask="url(#mask7_616_15440)">
      <g opacity="0.1216">
        <mask id="mask8_616_15440" style="mask-type:luminance" maskUnits="userSpaceOnUse" x="356" y="192" width="7" height="9">
          <path d="M358.853 200.424L362.307 199.296C362.464 199.245 362.546 199.076 362.495 198.924L360.541 192.923C360.49 192.767 360.322 192.684 360.169 192.735L356.715 193.863C356.558 193.914 356.476 194.083 356.527 194.235L358.481 200.236C358.532 200.392 358.7 200.475 358.853 200.424Z" fill="white"/>
        </mask>
        <g mask="url(#mask8_616_15440)">
          <path d="M357.792 196.589C357.883 193.965 358.838 192.88 359.856 192.927C360.871 192.974 361.317 194.568 360.769 196.636C360.483 197.713 359.982 199.405 359.21 200.251C358.615 200.905 357.718 198.794 357.792 196.589Z" fill="white"/>
        </g>
      </g>
    </g>
    <mask id="mask9_616_15440" style="mask-type:luminance" maskUnits="userSpaceOnUse" x="347" y="195" width="7" height="9">
      <path d="M347.543 197.729L349.96 203.561C350.022 203.714 350.195 203.785 350.348 203.722L353.704 202.331C353.857 202.269 353.927 202.096 353.864 201.944L351.448 196.112C351.385 195.959 351.213 195.888 351.06 195.951L347.704 197.341C347.551 197.404 347.481 197.58 347.543 197.729Z" fill="white"/>
    </mask>
    <g mask="url(#mask9_616_15440)">
      <g opacity="0.1216">
        <mask id="mask10_616_15440" style="mask-type:luminance" maskUnits="userSpaceOnUse" x="347" y="195" width="7" height="9">
          <path d="M349.842 203.909L353.794 202.62C353.951 202.569 354.033 202.401 353.982 202.248L351.93 195.954C351.879 195.797 351.71 195.715 351.558 195.766L347.606 197.055C347.449 197.106 347.367 197.274 347.418 197.427L349.47 203.721C349.521 203.874 349.689 203.956 349.842 203.909Z" fill="white"/>
        </mask>
        <g mask="url(#mask10_616_15440)">
          <path d="M352.016 198.724C350.242 196.789 348.808 196.585 348.068 197.282C347.328 197.979 348.025 199.479 349.787 200.694C350.704 201.328 352.188 202.284 353.32 202.425C354.197 202.538 353.508 200.349 352.016 198.724Z" fill="white"/>
        </g>
      </g>
    </g>
    <mask id="mask11_616_15440" style="mask-type:luminance" maskUnits="userSpaceOnUse" x="356" y="192" width="7" height="9">
      <path d="M358.853 200.424L362.307 199.296C362.464 199.245 362.546 199.076 362.495 198.924L360.541 192.923C360.49 192.767 360.322 192.684 360.169 192.735L356.715 193.863C356.558 193.914 356.476 194.083 356.527 194.235L358.481 200.236C358.532 200.392 358.7 200.475 358.853 200.424Z" fill="white"/>
    </mask>
    <g mask="url(#mask11_616_15440)">
      <g opacity="0.1216">
        <mask id="mask12_616_15440" style="mask-type:luminance" maskUnits="userSpaceOnUse" x="356" y="192" width="7" height="9">
          <path d="M358.853 200.424L362.307 199.296C362.464 199.245 362.546 199.076 362.495 198.924L360.541 192.923C360.49 192.767 360.322 192.684 360.169 192.735L356.715 193.863C356.558 193.914 356.476 194.083 356.527 194.235L358.481 200.236C358.532 200.392 358.7 200.475 358.853 200.424Z" fill="white"/>
        </mask>
        <g mask="url(#mask12_616_15440)">
          <path d="M357.792 196.589C357.883 193.965 358.838 192.88 359.856 192.927C360.871 192.974 361.317 194.568 360.769 196.636C360.483 197.713 359.982 199.405 359.21 200.251C358.615 200.905 357.718 198.794 357.792 196.589Z" fill="white"/>
        </g>
      </g>
    </g>
    <mask id="mask13_616_15440" style="mask-type:luminance" maskUnits="userSpaceOnUse" x="347" y="195" width="7" height="9">
      <path d="M347.543 197.729L349.96 203.561C350.022 203.714 350.195 203.785 350.348 203.722L353.704 202.331C353.857 202.269 353.927 202.096 353.864 201.944L351.448 196.112C351.385 195.959 351.213 195.888 351.06 195.951L347.704 197.341C347.551 197.404 347.481 197.58 347.543 197.729Z" fill="white"/>
    </mask>
    <g mask="url(#mask13_616_15440)">
      <g opacity="0.1216">
        <mask id="mask14_616_15440" style="mask-type:luminance" maskUnits="userSpaceOnUse" x="347" y="195" width="7" height="9">
          <path d="M349.842 203.909L353.794 202.62C353.951 202.569 354.033 202.401 353.982 202.248L351.93 195.954C351.879 195.797 351.71 195.715 351.558 195.766L347.606 197.055C347.449 197.106 347.367 197.274 347.418 197.427L349.47 203.721C349.521 203.874 349.689 203.956 349.842 203.909Z" fill="white"/>
        </mask>
        <g mask="url(#mask14_616_15440)">
          <path d="M352.016 198.724C350.242 196.789 348.808 196.585 348.068 197.282C347.328 197.979 348.025 199.479 349.787 200.694C350.704 201.328 352.188 202.284 353.32 202.425C354.197 202.538 353.508 200.349 352.016 198.724Z" fill="white"/>
        </g>
      </g>
    </g>
    <mask id="mask15_616_15440" style="mask-type:luminance" maskUnits="userSpaceOnUse" x="-53" y="-78" width="918" height="794">
      <path d="M-52.0044 162.754L684.145 -77.1806C684.302 -77.2316 684.466 -77.1454 684.517 -76.9926L864.411 475.019C864.462 475.176 864.376 475.341 864.223 475.392L128.074 715.33C127.917 715.381 127.752 715.295 127.701 715.142L-52.1924 163.13C-52.2433 162.974 -52.1571 162.805 -52.0044 162.754Z" fill="white"/>
    </mask>
    <g mask="url(#mask15_616_15440)">
      <g opacity="0.3216">
        <mask id="mask16_616_15440" style="mask-type:luminance" maskUnits="userSpaceOnUse" x="354" y="191" width="9" height="11">
          <path d="M357.478 201.099L361.998 199.626C362.155 199.575 362.237 199.407 362.186 199.254L359.597 191.307C359.546 191.15 359.378 191.068 359.225 191.119L354.705 192.592C354.549 192.643 354.467 192.811 354.517 192.964L357.106 200.911C357.153 201.064 357.322 201.15 357.478 201.099Z" fill="white"/>
        </mask>
        <g mask="url(#mask16_616_15440)">
          <path d="M359.507 191.03C359.75 193.764 359.374 196.505 359.002 199.224C358.951 199.607 358.892 199.999 358.708 200.34C358.524 200.681 358.176 200.959 357.788 200.951C357.349 200.943 356.989 200.567 356.856 200.148C356.719 199.733 356.762 199.282 356.805 198.848C356.93 197.582 357.052 196.317 357.177 195.052C357.255 194.238 357.341 193.407 357.678 192.667C358.015 191.923 358.665 191.269 359.507 191.03Z" fill="#252525"/>
        </g>
      </g>
    </g>
    <mask id="mask17_616_15440" style="mask-type:luminance" maskUnits="userSpaceOnUse" x="-53" y="-78" width="918" height="794">
      <path d="M-52.0044 162.754L684.145 -77.1806C684.302 -77.2316 684.466 -77.1454 684.517 -76.9926L864.411 475.019C864.462 475.176 864.376 475.341 864.223 475.392L128.074 715.33C127.917 715.381 127.752 715.295 127.701 715.142L-52.1924 163.13C-52.2433 162.974 -52.1571 162.805 -52.0044 162.754Z" fill="white"/>
    </mask>
    <g mask="url(#mask17_616_15440)">
      <g opacity="0.3216">
        <mask id="mask18_616_15440" style="mask-type:luminance" maskUnits="userSpaceOnUse" x="346" y="194" width="9" height="10">
          <path d="M349.779 203.727L354.42 202.215C354.577 202.165 354.659 201.996 354.608 201.843L352.203 194.464C352.152 194.308 351.984 194.225 351.831 194.276L347.19 195.788C347.034 195.839 346.951 196.007 347.002 196.16L349.407 203.539C349.454 203.692 349.622 203.778 349.779 203.727Z" fill="white"/>
        </mask>
        <g mask="url(#mask18_616_15440)">
          <path d="M347.025 196.172C349.011 198.048 350.997 199.924 352.978 201.804C353.182 201.996 353.39 202.192 353.652 202.286C353.915 202.38 354.243 202.344 354.42 202.129C354.67 201.82 354.486 201.361 354.279 201.021C353.014 198.964 351.103 197.374 349.046 196.109C348.666 195.878 348.263 195.647 347.817 195.639C347.374 195.627 346.822 195.98 347.025 196.172Z" fill="#252525"/>
        </g>
      </g>
    </g>
    <mask id="mask19_616_15440" style="mask-type:luminance" maskUnits="userSpaceOnUse" x="-71" y="-53" width="914" height="787">
      <path d="M-70.6888 179.189L668.097 -52.5009C668.253 -52.5479 668.418 -52.4617 668.469 -52.305L842.178 501.681C842.225 501.838 842.139 502.002 841.982 502.053L103.197 733.743C103.041 733.79 102.876 733.704 102.825 733.547L-70.8847 179.561C-70.9316 179.405 -70.8455 179.24 -70.6888 179.189Z" fill="white"/>
    </mask>
    <g mask="url(#mask19_616_15440)">
      <g opacity="0.1412">
        <mask id="mask20_616_15440" style="mask-type:luminance" maskUnits="userSpaceOnUse" x="343" y="74" width="178" height="177">
          <path d="M385.709 250.508L520.239 208.321V208.317L478.415 74.9365L343.885 117.128L385.705 250.508H385.709Z" fill="white"/>
        </mask>
        <g mask="url(#mask20_616_15440)">
          <path d="M503.766 202.508C489.557 192.818 473.657 184.334 456.914 172.075C444.53 163.011 433.133 154.171 426.62 148.198C415.458 137.956 404.571 130.847 390.025 128.489C387.46 128.074 385.137 127.765 383.159 127.62C380.23 127.404 378.428 127.459 377.003 127.549C377.234 127.083 377.531 126.633 377.555 126.037C377.708 121.972 373.603 119.551 372.095 119.473C370.58 119.391 370.259 119.551 369.413 119.794C368.097 120.17 366.937 120.957 366.068 122.034C367.063 120.295 366.342 117.851 365.837 116.943C364.85 115.157 363.001 112.356 360.037 112.329C357.381 112.305 355.447 114.745 355.47 116.551C355.505 119.594 358.96 123.241 357.487 124.941C357.487 124.941 357.436 124.988 357.436 124.992C358.411 130.882 356.132 137.306 351.362 140.952C360.229 137.874 370.274 139.793 378.487 144.336C386.704 148.88 394.118 153.654 400.055 160.928C405.526 167.629 408.98 178.435 409.838 184.835C411.103 194.286 410.277 206.009 396.718 220.654C407.073 214.195 417.048 210.776 434.3 215.119C441.377 216.902 447.679 224.175 452.547 229.541C452.962 228.037 453.44 226.545 454.012 225.068" fill="#523618"/>
        </g>
      </g>
    </g>
    <path d="M526.391 247.14L519.96 247.818L523.007 252.161L526.391 247.14Z" fill="#111111"/>
    <path d="M376.126 402.078C376.921 401.491 378.049 401.812 378.93 402.255C380.779 403.187 382.4 404.573 383.606 406.257C381.257 407.115 378.907 407.977 376.557 408.835C376.631 406.582 376.412 404.315 376.126 402.078Z" fill="#BDBDBD"/>
    <path d="M298.424 348.356C293.822 351.873 288.919 353.209 285.351 357.772C281.783 362.335 277.683 368.151 277.322 375.855C277.056 381.484 282.222 390.641 285.386 395.302C290.709 403.135 296.435 411.325 305 415.371C310.369 417.905 316.397 418.579 322.299 419.218C331.687 420.232 341.078 421.243 350.466 422.257C357.406 423.005 365.082 423.573 370.71 419.441C378.296 413.875 378.453 402.427 375.386 393.532C394.365 402.066 415.945 401.126 436.741 401.792C452.231 402.289 477.915 395.157 492.621 383.885C511.804 369.181 515.375 351.035 512.207 335.024C510.394 325.87 492.738 327.206 483.441 326.462C449.168 323.72 414.895 320.978 380.619 318.236C370.33 317.414 359.716 316.627 349.921 319.874C343.224 322.094 337.279 326.086 331.428 330.034C317.513 339.426 304.651 343.601 298.424 348.356Z" fill="#D08A5A"/>
    <path opacity="0.1608" d="M306.264 357.334C295.533 359.864 295.196 357.162 286.925 369.832C280.897 379.064 291.061 402.039 299.07 410.049C293.618 406.904 286.208 397.602 281.191 388.233C280.909 387.708 280.255 386.318 279.429 384.5C278.685 382.867 277.925 380.317 277.764 379.624C277.557 378.704 277.271 377.368 277.314 376.291C277.474 372.229 278.211 369.813 279.918 366.08C282.268 360.933 286.486 354.647 290.712 357.052C299.849 362.253 299.649 354.992 310.138 355.744C306.993 356.915 303.852 358.082 306.264 357.334Z" fill="#141414"/>
    <path opacity="0.1608" d="M345.088 351.031C336.832 351.728 337.459 354.004 326.25 363.71C316.4 372.24 328.658 420.941 334.075 420.486C337.447 437.219 320.453 397.668 318.636 389.509C317.571 384.723 315.734 374.332 316.141 369.827C316.463 366.302 323.453 356.154 324.049 358.308C325.51 363.608 330.703 350.408 334.059 348.105C341.493 343.01 340.925 347.573 348.225 350.103C345.707 350.741 343.188 351.372 345.088 351.031Z" fill="#141414"/>
    <path opacity="0.1608" d="M372.843 389.733C376.376 393.266 370.505 412.599 366.127 416.978C363.393 419.712 372.51 414.409 371.03 417.981C373.345 417.515 373.767 416.324 375.142 414.174C376.344 412.294 377.261 408.236 377.261 404.39C377.257 400.254 376.125 392.546 372.843 389.733Z" fill="#141414"/>
    <path opacity="0.1608" d="M396.766 399.583C401.794 400.393 407.195 400.762 412.557 401.102C418.525 401.482 434.109 401.753 440.92 401.753C448.533 401.753 462.883 398.31 471.06 395.2C487.412 388.984 497.234 381.711 504.479 371.95C511.294 362.769 514.592 351.493 512.669 337.671C506.265 384.582 450.495 403.014 396.766 399.583Z" fill="#141414"/>
    <path opacity="0.1608" d="M291.092 402.716C290.309 403.645 290.348 404.933 291.021 405.948C291.695 406.962 293.626 409.512 294.769 410.417C302.665 416.652 318.922 423.404 332.912 423.248C342.041 423.146 350.363 419.895 359.493 419.801C362.305 419.774 365.214 420.052 367.854 419.084C370.494 418.113 372.765 415.822 372.033 413.107C366.883 414.717 362.735 415.79 357.899 416.64C346.29 418.689 336.209 418.606 325.533 417.005C322.717 416.582 319.615 416.076 316.831 415.442C312.609 414.474 308.963 413.44 305.25 411.893C303.131 411.012 301.232 410.123 299.332 409.03C298.784 408.713 298.224 408.368 297.679 408.035C296.873 407.542 295.451 406.551 294.213 405.564C293.587 405.062 292.991 404.534 292.615 404.197C291.993 403.641 291.574 403.21 291.574 403.21C291.448 403.088 291.284 402.908 291.092 402.716Z" fill="#141414"/>
    <g opacity="0.1686">
      <mask id="mask21_616_15440" style="mask-type:luminance" maskUnits="userSpaceOnUse" x="342" y="215" width="135" height="94">
        <path d="M374.786 308.331L475.137 266.211C475.317 266.136 476.582 265.932 476.511 265.764L454.199 215.403C454.129 215.23 453.921 215.156 453.741 215.23L342.424 256.571C342.244 256.646 344.896 266.641 344.966 266.81L374.328 308.163C374.398 308.331 374.602 308.409 374.786 308.331Z" fill="white"/>
      </mask>
      <g mask="url(#mask21_616_15440)">
        <path d="M345.868 255.29C353.849 263.41 352.909 264.232 364.608 273.64C382.2 287.791 405.135 281.023 414.217 278.133C436.639 271.004 442.913 252.701 450.66 230.646C450.801 230.247 455.81 225.876 455.743 226.291C452.082 248.279 442.349 272.191 423.942 285.786C418.741 289.624 412.988 293.001 406.655 294.34C393.104 297.207 378.143 298.856 368.567 289.828C361.498 283.162 351.198 268.376 347.986 260.194" fill="#111111"/>
      </g>
    </g>
    <path d="M275.912 400.121C276.179 406.387 265.569 412.133 263.106 417.899C260.642 423.664 262.549 433.381 267.496 437.235C265.408 434.083 259.401 433.636 257.956 437.13C256.51 440.623 258.414 446.499 261.39 448.829C264.367 451.159 268.604 452.088 272.286 452.957C347.438 470.669 387.735 464.602 387.735 464.602C387.735 464.602 385.31 463.454 386.215 461.053C387.12 458.648 390.03 457.438 391.929 455.711C396.39 451.657 395.105 445.805 393.355 443.107C391.604 440.408 389.223 440.126 386.638 439.621C389.391 440.761 396.899 429.856 393.284 424.816C390.339 420.711 383.869 417.017 383.066 407.386C368.865 412.521 352.35 416.136 334.769 414.538C317.188 412.94 297.104 408.8 286.549 395.393C282.735 390.544 281.45 387.654 278.736 383.537C278.556 384.9 275.278 385.229 275.912 400.121Z" fill="#FFF5F8"/>
    <path opacity="0.1608" d="M393.241 424.697C393.758 430.216 392.222 433.647 388.42 437.446C384.593 441.273 376.905 442.252 371.504 442.616C376.666 442.616 384.668 441.245 388.114 439.393C390.503 438.108 392.277 434.877 393.354 432.386C394.431 429.895 394.698 426.785 393.241 424.697Z" fill="#141414"/>
    <path opacity="0.1608" d="M273.765 405.588C275.481 410.398 276.843 413.159 281.101 415.779C283.251 417.103 284.512 417.174 286.96 418.349C291.08 420.323 296.069 422.41 301.368 423.558C298.247 422.79 291.655 418.971 288.746 416.95C286.063 415.086 281.555 413.966 279.201 411.138C276.722 408.165 275.833 406.802 275.163 403.348C274.924 404.053 275.026 403.669 274.619 404.343C274.196 405.036 274.192 404.879 273.765 405.588Z" fill="#141414"/>
    <path opacity="0.1608" d="M393.21 442.887C394.827 447.172 393.974 452.562 390.112 455.017C381.061 460.775 356.799 459.071 351.754 459.071C355.177 459.467 378.437 462.451 386.36 459.322C389.074 458.249 392.861 455.574 394.275 452.432C395.689 449.291 395.027 445.989 393.21 442.887Z" fill="#141414"/>
    <path opacity="0.1608" d="M263.728 416.633C262.475 421.834 263.45 427.482 266.117 432.12C268.784 436.757 271.764 438.132 279.476 441.163C266.638 437.489 258.55 434.098 259.831 442.123C260.469 446.122 264.398 448.934 268.177 450.399C275.955 453.415 284.317 455.44 292.443 457.328C286.294 456.145 281.755 455.162 275.638 453.74C270.55 452.557 264.347 451.515 261.073 448.57C260.379 447.947 259.878 447.183 259.291 446.341C257.751 444.14 256.855 439.287 258.061 436.902C259.271 434.505 262.909 433.984 265.894 435.715C265.122 434.665 264.178 433.369 263.622 431.822C261.868 426.949 261.057 421.356 263.728 416.633Z" fill="#141414"/>
    <path opacity="0.1608" d="M275.924 393.102C286.267 410.813 309.413 418.231 318.037 419.951C341.364 424.608 357.21 423.076 379.729 413.093C362.34 419.696 343.165 421.521 324.844 418.321C306.527 415.125 289.815 405.87 275.924 393.102Z" fill="#141414"/>
    <path d="M278.567 382.28C275.513 383.224 273.711 386.651 274.459 389.757C275.207 392.863 277.486 395.35 279.793 397.563C303.123 419.982 332.324 424.436 364.028 417.977C365.109 417.758 377.52 414.518 382.882 411.314C386.547 409.125 382.815 403.003 379.749 404.636C371.759 408.894 355.157 413.668 340.662 412.983C328.424 412.403 312.417 409.188 301.388 403.853C290.36 398.519 284.199 392.119 278.567 382.28Z" fill="white"/>
    <path d="M489.154 195.529C492.886 188.076 509.946 183.003 523.18 187.574C535.105 191.691 547.881 214.149 546.373 254.049C545.222 284.513 539.202 325.243 537.784 332.199C532.395 358.606 523.18 382.67 523.18 382.67L534.228 386.94C534.228 386.94 520.787 380.387 516.573 378.198C513.6 376.654 505.47 372.005 505.47 372.005C505.47 372.005 505.317 372.319 504.248 373.595C513.964 380.43 534.173 387.308 534.173 387.308C534.173 387.308 534.357 387.151 534.816 385.937C535.575 383.912 537.087 379.369 539.774 370.787C543.06 360.286 548.793 339.841 551.276 323.52C554.629 301.488 555.831 286.805 556.25 278.999C556.83 268.181 557.668 260.21 557.363 248.393C557.124 239.028 556.184 231.994 554.41 223.737C552.224 213.562 550.313 206.762 545.304 197.64C543.201 193.81 540.118 190.3 536.88 187.703C533.641 185.107 530.245 183.43 526.662 182.079C523.133 180.747 519.988 180.587 516.984 180.689C513.216 180.818 508.544 181.75 503.86 183.681C499.164 185.616 494.48 188.436 490.74 192.642C489.902 193.583 489.585 194.515 489.154 195.529Z" fill="#D5D5D5"/>
    <path d="M319.811 290.451C323.716 309.314 342.041 341.173 342.041 341.173L398.641 350.98C398.641 350.98 410.097 338.787 455.97 345.191C457.517 345.407 492.702 349.848 503.966 350.24C509.801 350.444 513.048 349.437 513.048 349.437C513.048 349.437 513.17 347.815 513.213 346.75C513.256 345.638 513.213 339.943 513.213 339.943C513.213 339.943 477.287 301.857 481.725 298.48C481.916 298.335 483.749 302.71 473.465 271.702C487.09 260.21 507.636 249.807 526.407 247.187C526.407 247.187 518.711 222.868 513.099 210.561C505.345 193.551 488.245 189.356 478.059 192.243C467.003 195.372 458.649 208.697 455.292 216.617C445.658 239.369 447.068 242.941 441.769 254.084C436.576 264.996 424.674 284.729 394.729 285.763C385.858 286.068 372.844 284.423 358.69 270.268C347.845 259.423 344.469 251.57 343.384 249.055C343.216 248.663 342.942 248.213 342.942 248.213C342.942 248.213 336.464 248.742 331.835 255.753C329.551 259.207 326.019 276.069 326.019 276.069" fill="#232D40"/>
    <g opacity="0.1412">
      <mask id="mask22_616_15440" style="mask-type:luminance" maskUnits="userSpaceOnUse" x="438" y="231" width="117" height="240">
        <path d="M508.541 470.189L554.771 455.736C554.908 455.693 554.986 455.552 554.943 455.423L484.952 231.515C484.913 231.386 484.768 231.311 484.631 231.355L438.401 245.807C438.264 245.85 438.186 245.991 438.229 246.121L508.22 470.028C508.263 470.161 508.404 470.232 508.541 470.189Z" fill="white"/>
      </mask>
      <g mask="url(#mask22_616_15440)">
        <path d="M461.876 242.898C461.876 242.898 469.431 277.06 476.038 321.283C477.749 332.756 483.706 320.52 483.706 334.976C483.706 339.441 493.09 344.572 487.286 318.671C484.462 306.071 481.11 291.704 478.47 275.548V275.744C478.063 270.699 479.269 281.368 473.798 271.831C473.798 271.831 470.892 267.793 466.638 256.332L461.876 242.898Z" fill="#111111"/>
      </g>
    </g>
    <g opacity="0.2784">
      <mask id="mask23_616_15440" style="mask-type:luminance" maskUnits="userSpaceOnUse" x="344" y="277" width="9" height="22">
        <path d="M348.401 298.124L351.828 297.529C351.969 297.505 352.063 297.372 352.04 297.231L348.609 277.479C348.586 277.338 348.452 277.244 348.311 277.268L344.885 277.863C344.744 277.887 344.65 278.02 344.673 278.161L348.104 297.913C348.127 298.054 348.26 298.148 348.401 298.124Z" fill="white"/>
      </mask>
      <g mask="url(#mask23_616_15440)">
        <path d="M348.561 277.221C347.731 283.5 347.625 284.643 347.931 290.225C347.97 290.941 348.33 296.425 348.401 298.121C348.432 298.869 349.642 302.061 349.599 303.029C349.576 303.557 351.111 303.98 351.083 304.748C350.704 300.334 349.27 292.414 349.02 287.691C348.796 283.468 348.448 280.335 348.561 277.221Z" fill="#111111"/>
      </g>
    </g>
    <path d="M357.339 330.057C372.213 330.057 377.673 330.558 392.215 330.081C387.946 335.306 379.67 341.502 377.841 347.996C370.055 348.944 362.446 351.305 355.494 354.932C356.352 346.727 357.687 338.572 357.339 330.057Z" fill="#8F8F8F"/>
    <path d="M261.327 355.829C247.577 326.669 236.529 293.796 227.587 263.007C227.247 261.835 228.049 260.539 229.334 260.461C264.206 258.267 305.282 258.118 333.378 260.343C338.144 260.719 364.796 339.175 369.347 363.714C331.028 363.714 298.232 360.987 264.746 358.128C263.25 357.999 261.934 357.122 261.327 355.829Z" fill="#B3BCC9"/>
    <path opacity="0.1686" d="M264.745 358.128C297.287 360.905 329.182 363.557 366.126 363.706C340.422 355.535 317.613 341.623 285.267 321.139C254.366 301.567 233.703 270.542 227.59 261.878C227.484 262.239 227.472 262.63 227.582 263.006C236.523 293.792 247.571 326.665 261.322 355.829C261.933 357.122 263.249 357.999 264.745 358.128Z" fill="#141414"/>
    <path d="M391.431 323.07C379.169 332.466 373.694 336.359 364.956 349.586C360.859 355.79 355.494 366.98 355.494 366.98C355.494 366.98 354.432 371.567 354.397 373.545C354.358 375.707 355.255 383.478 355.255 383.478C355.251 383.756 355.545 383.936 355.788 383.807C357.013 383.156 361.102 381.543 365.402 379.22C375.636 373.69 391.169 364.591 401.716 358.128C402.663 357.549 403.643 356.938 404.246 356.002C405.393 354.216 404.794 351.764 403.517 350.064C402.244 348.368 400.415 347.185 398.81 345.795C393.088 340.84 390.26 331.134 391.431 323.07Z" fill="#F2DFA7"/>
    <path opacity="0.1608" d="M392.018 323.07C391.035 323.387 388.556 325.138 384.455 328.44C381.295 330.989 376.799 334.616 373.572 338.255C369.972 342.313 366.013 347.577 363.855 351.278C372.42 342.336 387.389 331.973 391.63 331.957C392.182 334.248 392.582 333.547 393.134 335.838C387.921 339.242 381.737 341.122 369.338 351.752C366.463 354.216 362.022 359.347 359.277 362.488C356.531 365.629 355.485 366.98 355.485 366.98C355.485 366.98 354.824 369.342 354.71 370.658C360.495 365.7 370.36 356.084 377.171 351.4C388.525 343.593 396.342 341.694 398.711 342.199C396.267 343.609 389.163 348.231 382.008 353.174C379.431 354.956 375.53 357.149 372.444 360.514C365.895 367.662 358.438 374.281 355.286 383.732C355.243 383.857 355.395 383.951 355.482 383.85C362.026 376.263 370.098 368.469 378.612 361.912C388.873 354.016 399.78 347.745 409.45 343.484C399.569 355.069 383.809 365.292 372.632 375.213C379.035 371.637 396.252 361.607 402.111 357.874C402.565 357.584 407.801 352.124 408.201 351.819C408.526 351.568 409.501 345.211 409.826 344.949C410.124 344.706 403.035 352.128 403.395 351.791C403.556 351.638 403.669 351.838 403.669 351.838C403.669 351.838 404.457 345.728 404.844 345.376C396.796 339.418 394.912 332.65 392.018 323.07Z" fill="#111111"/>
    <path d="M389.234 324.735C389.234 324.735 398.939 313.576 423.107 313.576C423.573 313.576 425.34 313.83 427.643 313.38C431.947 312.538 448.556 304.391 479.062 296.62C478.65 287.69 475.486 278.905 472.878 270.347C486.393 258.718 504.785 250.258 522.452 247.845C529.341 270.425 533.214 299.319 527.524 324.061C526.388 328.996 522.949 338.839 521.481 339.689C518.261 341.557 511.588 342.752 506.982 343.077C492.237 344.122 488.829 343.762 474.056 344.35C465.244 344.698 440.446 353.429 427.964 350.025C416.034 357.521 409.102 358.704 401.61 358.704C401.344 358.704 400.651 358.853 400.588 358.838C398.383 358.344 391.792 353.123 386.273 344.017C382.647 338.04 389.234 324.735 389.234 324.735Z" fill="#D08A5A"/>
    <path opacity="0.1608" d="M386.986 345.164C388.753 348.532 396.68 354.364 402.362 354.932C409.381 355.633 417.781 355.774 425.399 351.58C424.059 352.367 418.063 356.213 411.022 357.729C409.451 358.066 406.099 358.559 403.612 358.669C403.106 358.692 402.597 358.677 402.1 358.7C401.794 358.712 401.649 358.677 401.505 358.708C401.383 358.736 401.187 358.751 401.078 358.767C400.741 358.818 400.557 358.833 400.557 358.833C400.557 358.833 399.958 358.72 398.924 358.078C397.075 356.922 394.8 354.96 393.343 353.338C390.546 350.209 389.035 348.442 386.986 345.164Z" fill="#141414"/>
    <path opacity="0.1608" d="M483.357 296.162C481.184 295.833 475.422 297.498 469.415 299.209C462.577 301.16 458.241 302.397 450.882 304.99C448.928 305.68 444.197 307.34 440.476 308.727C436.282 310.294 433.677 311.32 430.885 312.362C426.996 313.811 427.203 313.149 420.212 317.508C422.163 316.521 447.22 307.493 449.413 306.698C470.492 299.084 460.164 301.696 483.357 296.162Z" fill="#141414"/>
    <path d="M310.517 152.755C306.064 157.436 300.323 165.206 298.787 173.992C298.008 178.441 296.864 182.091 296.864 189.741C296.864 193.583 293.394 195.021 292.76 196.709C291.981 198.788 292.74 208.929 295.791 214.675C297.793 218.443 302.504 218.764 303.558 221.18C305.214 224.98 309.675 231.481 312.608 234.411C317.484 239.287 319.302 238.68 324.992 239.072C338.77 240.02 344.762 227.792 335.402 226.632C329.676 225.92 330.15 233.702 320.751 234.172C318.111 234.301 310.607 228.011 306.577 219.261C300.366 205.78 297.326 198.193 300.123 184.481C302.355 173.522 319.725 154.244 333.131 147.025C354.08 135.745 368.433 132.38 390.35 136.579C395.566 137.578 410.899 142.971 406.877 148.408C402.134 154.815 403.532 160.773 404.911 163.789C407.539 169.546 411.784 177.791 420.299 177.791C426.471 177.791 435.33 174.642 436.63 163.604C437.809 153.597 430.529 145.811 423.824 142.489C421.807 141.491 418.779 141.404 415.685 139.262C407.328 133.477 401.104 131.252 390.82 127.794C374.657 122.361 358.337 123.626 342.706 130.481C327.076 137.335 317.026 145.909 310.517 152.755Z" fill="#252525"/>
    <path opacity="0.6" d="M423.816 142.483C421.799 141.484 418.771 141.398 415.677 139.255C407.32 133.47 401.097 131.245 390.812 127.787C374.649 122.354 358.329 123.62 342.698 130.474C327.068 137.328 317.03 145.91 310.521 152.756C306.499 156.986 301.415 163.747 299.343 171.494C299.253 171.854 299.159 172.214 299.077 172.575C299.077 172.583 299.073 172.59 299.073 172.598C308.547 152.705 326.778 142.318 334.642 138.119C346.474 131.806 366.671 124.959 389.989 131.594C402.69 135.209 416.284 141.981 421.979 151.46C427.168 160.096 426.479 170.425 418.047 177.576C418.047 177.576 418.047 177.576 418.051 177.576C419.966 177.463 421.908 177.482 423.816 177.447C429.401 176.394 435.561 172.653 436.626 163.594C437.797 153.59 430.517 145.804 423.816 142.483Z" fill="#141414"/>
    <path opacity="0.1608" d="M458.198 210.781C465.185 206.966 482.801 208.795 490.83 217.541C501.428 229.084 505.423 238.241 509.143 255.005C515.515 283.73 519.706 290.357 516.076 322.048C514.842 332.807 508.027 336.375 477.232 339.45C465.671 340.605 448.599 348.442 443.065 349.496C441.577 349.778 440.104 349.97 438.683 350.083C434.414 350.428 430.556 350.087 427.807 349.472C425.281 348.908 423.769 348.074 423.041 347.733C423.726 348.274 425.911 349.743 429.311 350.33C431.978 350.792 435.651 350.957 439.603 350.581C448.439 349.747 458.3 347.31 458.825 347.205C464.249 346.1 465.663 345.442 469.137 344.992C473.308 344.451 481.552 344.169 484.321 344.02C490.035 343.719 491.641 343.793 493.466 343.793C496.141 343.793 498.886 343.558 500.747 343.468C505.239 343.249 507.393 342.994 511.427 342.563C514.341 342.254 518.555 340.95 519.542 340.581C519.596 340.562 520.29 340.284 520.795 340.041C521.284 339.806 521.582 339.606 521.625 339.571C522.24 339.097 522.839 337.742 523.63 335.921C524.59 333.7 525.565 330.88 526.141 328.992C529.689 317.375 531.318 302.315 529.932 286.386C528.984 275.517 528.146 266.978 522.659 247.798C524.096 247.489 523.995 247.5 526.411 247.175C525.894 245.366 524.895 242.765 523.525 238.363C522.072 233.702 519.914 228.054 518.484 223.969C515.676 215.939 512.042 207.076 508.18 202.666C503.751 197.609 499.074 194.229 492.189 192.427C487.987 191.327 479.704 189.682 472.482 194.754C465.879 199.395 462.084 203.809 458.198 210.781Z" fill="#141414"/>
    <path opacity="0.6" d="M295.616 193.345C295.432 199.173 296.227 211.659 301.42 219.199C298.788 217.742 296.43 217.155 294.727 212.266C294.312 211.08 293.83 209.893 293.528 208.146C293.211 206.317 292.064 201.401 292.663 197.062C292.815 195.949 294.633 194.688 295.616 193.345Z" fill="#141414"/>
    <path opacity="0.6" d="M312.605 234.416C316.353 237.016 324.523 237.882 329.841 236.308C335.947 234.498 336.386 232.226 339.096 228.298C340.737 230.499 339.656 233.092 337.384 235.364C335.947 236.801 333.534 237.937 331.149 238.575C329.876 238.912 329.058 239.026 327.507 239.104C326.645 239.147 326.191 239.171 325.216 239.092C322.87 238.897 318.562 239.006 316.576 237.628C315.268 236.715 314.085 236.084 312.605 234.416Z" fill="#141414"/>
    <path d="M309.769 442.582C309.056 441.442 308.739 440.913 308.304 439.624C307.866 438.34 307.983 436.754 308.939 435.763C309.883 434.787 311.543 434.662 312.573 435.485C313.603 436.307 313.858 437.968 313.133 439.115C312.479 437.658 314.085 435.81 315.659 436.017C317.234 436.225 318.256 438.023 317.974 439.621C317.692 441.219 316.188 442.174 314.876 443.106C311.751 445.335 311.042 444.61 309.769 442.582Z" fill="#FF0069"/>
    <path d="M319.134 419.202C318.535 418.674 317.924 417.933 317.548 417.228C317.172 416.523 317.066 415.619 317.497 414.945C317.928 414.271 318.981 414.017 319.557 414.569C319.334 417.409 321.981 417.275 321.676 420.107C321.449 422.199 320.125 424.188 318.637 425.677C314.658 429.656 311.677 435.367 311.243 446.169C311.223 446.686 310.146 446.271 309.919 446.247C308.771 446.13 310.976 434.384 311.987 432.198C313.401 429.143 313.663 428.532 315.837 425.963C316.886 424.721 318.226 423.628 318.97 422.187C319.714 420.742 319.78 419.774 319.134 419.202Z" fill="#D9D9D9"/>
    <path d="M346.913 420.996C348.879 420.264 350.093 417.925 349.557 415.897C349.76 415.473 350.387 415.379 350.779 415.642C351.17 415.904 351.343 416.41 351.319 416.884C351.299 417.354 351.119 417.804 350.943 418.239C350.645 418.975 350.332 419.731 349.764 420.283C349.2 420.832 348.3 421.125 346.913 420.996Z" fill="#E1E1E1"/>
    <path d="M347.802 421.964C348.589 422.657 348.863 423.868 348.46 424.831C348.938 425.219 349.725 425.015 350.065 424.498C350.402 423.981 350.336 423.276 350.034 422.744C349.729 422.211 349.219 421.819 348.691 421.51C348.503 421.514 348.319 421.518 347.802 421.964Z" fill="#D9D9D9" stroke="#D9D9D9" stroke-miterlimit="10"/>
    <path d="M360.629 419.183C361.165 418.258 361.698 417.334 362.235 416.41C362.348 416.218 362.481 416.006 362.701 415.959C362.959 415.904 363.21 416.136 363.276 416.39C363.339 416.649 363.269 416.915 363.178 417.166C362.932 417.886 362.575 418.564 360.629 419.183Z" fill="#D9D9D9"/>
    <path d="M326.046 420.84C325.815 420.146 325.302 419.653 324.988 419.007C324.675 418.36 324.671 417.346 325.235 417.044C325.732 416.782 326.296 417.291 326.528 417.89C326.755 418.486 326.782 419.171 326.99 419.782C327.197 420.393 327.714 420.945 326.046 420.84Z" fill="#D9D9D9"/>
    <path d="M278.568 382.28C277.577 384.622 277.823 386.016 279.206 388.151C280.898 390.763 287.646 396.584 291.578 397.884C285.429 392.326 281.552 387.344 278.568 382.28Z" fill="#BDBDBD"/>
    <path d="M283.279 450.371C282.402 449.999 281.458 449.74 280.734 449.125C280.009 448.51 279.516 447.527 279.751 446.607C279.982 445.702 280.957 445.052 281.881 445.189C282.805 445.326 283.553 446.227 283.514 447.159C282.594 446.517 282.923 444.86 283.965 444.441C285.006 444.022 286.271 444.739 286.667 445.788C287.063 446.838 286.581 447.974 286.005 448.933C284.991 450.625 285.108 451.146 283.279 450.371Z" fill="#FF0069"/>
    <path d="M337.608 439.307C336.554 437.893 335.795 437.43 335.043 435.817C334.291 434.203 334.212 432.115 335.325 430.686C336.413 429.28 338.563 428.88 340.024 429.809C341.485 430.737 342.057 432.867 341.27 434.469C340.208 432.66 342.041 430.02 344.125 430.071C346.208 430.122 347.798 432.319 347.657 434.446C347.516 436.573 345.695 438.038 344.109 439.436C341.27 441.935 339.398 441.708 337.608 439.307Z" fill="#FF0069"/>
    <path d="M278.077 431.267C276.899 430.35 275.516 429.657 274.627 428.443C273.734 427.229 273.327 425.513 274.008 424.146C274.678 422.799 276.393 422.11 277.756 422.638C279.119 423.163 279.946 424.836 279.562 426.293C278.383 424.969 279.464 422.478 281.199 422.172C282.934 421.867 284.618 423.426 284.853 425.212C285.088 426.998 284.007 428.674 282.742 429.935C280.937 431.741 280.58 433.214 278.077 431.267Z" fill="#FF0069"/>
    <path d="M377.865 429.308C377.042 428.063 375.895 426.833 375.338 425.435C374.782 424.036 374.822 422.274 375.824 421.122C376.811 419.99 378.644 419.755 379.831 420.609C381.017 421.463 381.393 423.288 380.657 424.6C379.85 423.022 381.526 420.883 383.281 421.028C385.036 421.173 386.273 423.104 386.046 424.89C385.823 426.676 383.845 428.56 382.224 429.308C380.602 430.056 379.204 431.337 377.865 429.308Z" fill="#FF0069"/>
    <path d="M370.988 453.247C370.49 452.374 369.868 451.888 369.539 450.928C369.214 449.969 369.296 448.782 370.012 448.042C370.717 447.313 371.955 447.219 372.727 447.834C373.494 448.449 373.686 449.691 373.146 450.548C372.656 449.46 373.858 448.077 375.033 448.234C376.208 448.39 376.976 449.734 376.764 450.928C376.553 452.123 375.468 452.894 374.45 453.533C372.492 454.763 371.998 455.017 370.988 453.247Z" fill="#FF0069"/>
    <path d="M335.008 463.787C335.008 463.787 333.895 462.636 333.57 461.676C333.245 460.717 333.327 459.53 334.044 458.79C334.749 458.061 335.987 457.967 336.758 458.582C337.526 459.197 337.718 460.439 337.177 461.296C336.688 460.208 337.89 458.825 339.065 458.982C340.24 459.138 341.008 460.482 340.796 461.676C340.585 462.871 338.196 464.101 338.196 464.101L335.008 463.787Z" fill="#FF0069"/>
  </g>
  <mask id="mask24_616_15440" style="mask-type:luminance" maskUnits="userSpaceOnUse" x="277" y="292" width="39" height="43">
    <path fill-rule="evenodd" clip-rule="evenodd" d="M315.063 318.068C315.554 318.034 315.919 318.947 315.862 320.062C315.808 321.093 315.414 321.927 314.96 321.967L314.719 321.989L314.301 322.026C309.54 322.469 293.987 324.597 279.388 334.16C279.376 334.321 277.23 335.047 277.281 334.047C277.281 334.047 294.299 319.566 315.063 318.068ZM298.862 292.26C299.696 292.036 300.584 292.131 301.351 292.526C302.43 293.197 303.269 294.191 303.748 295.367C304.284 296.856 303.432 298.617 302.913 299.599C302.072 301.043 301.103 303.303 300.633 304.352C300.331 305.048 299.921 305.455 299.099 304.853C298.776 304.653 298.505 304.38 298.308 304.056C298.11 303.732 297.991 303.366 297.961 302.988C297.885 302.14 298.269 300.561 299.426 298.573C300.29 296.926 301.207 294.993 300.619 294.734C299.06 294.024 290.888 301.629 291.083 306.102C291.191 308.669 296.816 309.646 298.456 310.378C298.817 310.511 299.134 310.739 299.375 311.038C299.615 311.336 299.77 311.695 299.823 312.074C299.902 312.96 299.475 314.076 298.551 315.501C297.277 317.158 295.434 318.285 293.377 318.664C291.552 318.978 289.68 318.884 287.896 318.388C286.112 317.892 284.46 317.007 283.061 315.796C282.448 315.264 282.687 314.779 283.225 314.463C283.616 314.289 284.024 314.158 284.443 314.071C285.501 313.786 286.625 313.881 287.619 314.341C289.277 315.226 292.063 316.564 294.36 316.049C295.144 315.923 295.864 315.541 296.407 314.962C296.52 314.854 296.607 314.72 296.661 314.573C296.714 314.425 296.732 314.267 296.714 314.111C296.696 313.955 296.642 313.806 296.557 313.674C296.471 313.543 296.356 313.433 296.221 313.353C293.177 311.838 287.481 310.994 287.13 307.067C286.662 301.831 292.433 295.865 295.869 293.6C296.767 292.957 297.784 292.502 298.862 292.26Z" fill="white"/>
  </mask>
  <g mask="url(#mask24_616_15440)">
    <mask id="mask25_616_15440" style="mask-type:luminance" maskUnits="userSpaceOnUse" x="272" y="290" width="46" height="46">
      <path d="M314.05 290.029L272.835 293.717L276.59 335.685L317.805 331.997L314.05 290.029Z" fill="white"/>
    </mask>
    <g mask="url(#mask25_616_15440)">
      <mask id="mask26_616_15440" style="mask-type:luminance" maskUnits="userSpaceOnUse" x="273" y="290" width="44" height="45">
        <path d="M277.341 334.788L316.907 331.248L313.3 290.926L273.733 294.466L277.341 334.788Z" fill="white"/>
      </mask>
      <g mask="url(#mask26_616_15440)">
        <path d="M272.835 293.717L314.05 290.029L317.805 331.997L276.59 335.685L272.835 293.717Z" fill="#0057FF"/>
      </g>
    </g>
  </g>
  <defs>
    <filter id="filter0_b_616_15440" x="7.56152" y="-88.0864" width="715.711" height="673.13" filterUnits="userSpaceOnUse" color-interpolation-filters="sRGB">
      <feFlood flood-opacity="0" result="BackgroundImageFix"/>
      <feGaussianBlur in="BackgroundImageFix" stdDeviation="50"/>
      <feComposite in2="SourceAlpha" operator="in" result="effect1_backgroundBlur_616_15440"/>
      <feBlend mode="normal" in="SourceGraphic" in2="effect1_backgroundBlur_616_15440" result="shape"/>
    </filter>
    <filter id="filter1_b_616_15440" x="85.0381" y="-16.7075" width="561.312" height="531.713" filterUnits="userSpaceOnUse" color-interpolation-filters="sRGB">
      <feFlood flood-opacity="0" result="BackgroundImageFix"/>
      <feGaussianBlur in="BackgroundImageFix" stdDeviation="25"/>
      <feComposite in2="SourceAlpha" operator="in" result="effect1_backgroundBlur_616_15440"/>
      <feBlend mode="normal" in="SourceGraphic" in2="effect1_backgroundBlur_616_15440" result="shape"/>
    </filter>
    <linearGradient id="paint0_linear_616_15440" x1="764.229" y1="537.325" x2="-42.4539" y2="-305.226" gradientUnits="userSpaceOnUse">
      <stop offset="0.0541064" stop-color="white"/>
      <stop offset="0.63085" stop-color="#F9F9FF" stop-opacity="0.65"/>
      <stop offset="0.792052" stop-color="#E4EEFF" stop-opacity="0.33"/>
    </linearGradient>
    <linearGradient id="paint1_linear_616_15440" x1="722.437" y1="512.711" x2="-14.1223" y2="-241.466" gradientUnits="userSpaceOnUse">
      <stop offset="0.0541064" stop-color="#FFF5FD"/>
      <stop offset="0.334245" stop-color="#F0F1FE" stop-opacity="0.65"/>
      <stop offset="0.733105" stop-color="#D6E4FF" stop-opacity="0.33"/>
    </linearGradient>
    <linearGradient id="paint2_linear_616_15440" x1="616.837" y1="294.188" x2="177.724" y2="131.131" gradientUnits="userSpaceOnUse">
      <stop stop-color="white"/>
      <stop offset="1" stop-color="white" stop-opacity="0.353"/>
    </linearGradient>
  </defs>
</svg>
